#!OML:ASF H:\Terrain\Patient Classification 1\PLAYGROUND\JustinFriday\JustinFriday.ASF
:FULLY-SPECIFIED
:DEGREES
167
root -9.65553 17.3878 15.2972 204.836 -78.1124 -199.419
lowerback 8.68693 -1.54103 -6.59488
upperback 3.3941 -2.78903 -2.25231
thorax -1.14191 -1.49148 1.62655
lowerneck 3.38742 -12.664 -14.8745
upperneck 13.5497 -18.7316 9.95227
head 5.89395 -9.59359 4.3419
rclavicle -1.25234e-014 -7.95139e-016
rhumerus -39.2971 -9.87469 -72.7999
rradius 43.063
rwrist -9.2422
rhand -18.7329 -22.6959
rfingers 7.12502
rthumb 7.56298 -52.5407
lclavicle -1.25234e-014 -7.95139e-016
lhumerus -23.9027 10.178 66.027
lradius 41.2965
lwrist 10.1847
lhand -23.7108 -3.65835
lfingers 7.12502
lthumb 2.75668 26.3036
rfemur -36.5378 -9.05715 27.6565
rtibia 24.9258
rfoot -14.6798 -22.9225
rtoes 19.4312
lfemur 2.3531 10.9745 -19.9872
ltibia 21.9255
lfoot -18.6447 -5.73203
ltoes 0.503523
168
root -9.79825 17.3669 15.2259 203.602 -77.7747 -198.871
lowerback 9.18916 -1.45023 -6.96791
upperback 3.56315 -2.74397 -2.13167
thorax -1.22125 -1.47805 1.96952
lowerneck 3.18225 -12.7548 -15.542
upperneck 14.152 -18.9577 10.256
head 6.24286 -9.71913 4.46765
rclavicle -3.51849e-014 8.74653e-015
rhumerus -39.8536 -11.2228 -71.7506
rradius 44.3562
rwrist -8.37087
rhand -15.1545 -25.0718
rfingers 7.12502
rthumb 11.0158 -54.7627
lclavicle -3.51849e-014 8.74653e-015
lhumerus -23.9574 9.90493 65.8986
lradius 41.4857
lwrist 10.2221
lhand -24.0739 -3.97351
lfingers 7.12502
lthumb 2.40601 25.9927
rfemur -35.7363 -9.29085 28.0682
rtibia 25.6708
rfoot -13.7846 -22.296
rtoes 20.9422
lfemur 4.04304 11.3929 -19.4767
ltibia 21.43
lfoot -18.3637 -6.22614
ltoes 1.10063
169
root -9.93805 17.3636 15.2111 205.24 -77.6811 -200.07
lowerback 8.65266 -1.65698 -6.57212
upperback 3.40402 -2.93873 -2.26293
thorax -1.10324 -1.56762 1.61409
lowerneck 3.35116 -12.758 -15.9265
upperneck 14.1136 -19.0453 10.6098
head 6.2867 -9.77204 4.6308
rclavicle -9.74045e-015 7.95139e-015
rhumerus -39.2389 -11.022 -71.2772
rradius 44.1692
rwrist -9.535
rhand -21.9913 -19.8528
rfingers 7.12502
rthumb 4.41713 -49.7868
lclavicle -9.74045e-015 7.95139e-015
lhumerus -24.053 9.54079 65.8044
lradius 41.7135
lwrist 10.1651
lhand -24.5615 -3.92801
lfingers 7.12502
lthumb 1.93507 26.043
rfemur -36.3289 -9.90266 28.1544
rtibia 26.2773
rfoot -13.2251 -21.1551
rtoes 23.2231
lfemur 4.09926 10.5411 -20.0415
ltibia 21.1876
lfoot -18.3044 -5.34899
ltoes -0.229286
170
root -10.0879 17.3432 15.1555 205.009 -77.6095 -200.33
lowerback 8.94822 -1.65003 -6.78203
upperback 3.5155 -2.96918 -2.13845
thorax -1.12968 -1.58864 1.87094
lowerneck 3.43688 -12.7221 -16.2765
upperneck 14.1164 -19.075 10.9671
head 6.34662 -9.79294 4.79104
rclavicle 2.78299e-015 6.04305e-014
rhumerus -39.2874 -11.533 -70.5174
rradius 44.8564
rwrist -10.08
rhand -19.376 -22.6415
rfingers 7.12502
rthumb 6.94219 -52.5077
lclavicle 2.78299e-015 6.04305e-014
lhumerus -24.2022 9.53669 65.9014
lradius 41.9894
lwrist 9.8034
lhand -24.2411 -3.72354
lfingers 7.12502
lthumb 2.24452 26.2444
rfemur -35.7219 -9.31218 27.8348
rtibia 27.1569
rfoot -13.4445 -21.0507
rtoes 25.5246
lfemur 5.50041 10.7703 -19.7067
ltibia 20.6543
lfoot -18.0392 -5.77491
ltoes -1.83016
171
root -10.2317 17.36 15.1594 204.789 -77.5706 -199.33
lowerback 8.12038 -1.8257 -5.71604
upperback 3.27717 -3.0379 -2.11292
thorax -0.972395 -1.60588 1.28351
lowerneck 3.22877 -12.815 -16.9252
upperneck 14.4952 -19.3044 11.4266
head 6.64634 -9.90975 4.96838
rclavicle 5.40694e-014 -7.95139e-015
rhumerus -39.4352 -12.254 -69.5572
rradius 45.7619
rwrist -10.0747
rhand -18.6453 -23.2355
rfingers 7.12502
rthumb 7.64753 -53.0772
lclavicle 5.40694e-014 -7.95139e-015
lhumerus -24.3162 9.71522 66.0498
lradius 42.1909
lwrist 9.07983
lhand -23.671 -4.05759
lfingers 7.12502
lthumb 2.79511 25.9038
rfemur -36.717 -9.02896 27.9205
rtibia 28.0747
rfoot -13.563 -20.4127
rtoes 28.6996
lfemur 5.31908 10.0621 -19.8733
ltibia 20.083
lfoot -17.1723 -5.43657
ltoes -1.48396
172
root -10.3907 17.3449 15.1205 208.063 -77.1487 -203.375
lowerback 8.48894 -1.87339 -6.6061
upperback 3.47259 -3.20889 -2.1762
thorax -0.91407 -1.71009 1.73547
lowerneck 3.30019 -12.8071 -16.5007
upperneck 14.0039 -19.1215 10.7577
head 6.3433 -9.82456 4.74055
rclavicle 3.4191e-014 7.55382e-015
rhumerus -39.1565 -12.6019 -68.6024
rradius 46.3755
rwrist -10.0014
rhand -19.2982 -23.256
rfingers 7.12502
rthumb 7.01727 -53.1197
lclavicle 3.4191e-014 7.55382e-015
lhumerus -24.5416 9.98333 66.2508
lradius 42.2663
lwrist 8.40506
lhand -23.2582 -4.61458
lfingers 7.12502
lthumb 3.1937 25.3412
rfemur -35.9859 -8.73556 26.5276
rtibia 29.0468
rfoot -14.026 -20.5224
rtoes 31.7245
lfemur 6.87192 9.88288 -20.6852
ltibia 19.5392
lfoot -16.3444 -5.75375
ltoes -0.97735
173
root -10.5525 17.3187 15.0365 211.042 -77.1623 -207.344
lowerback 9.08306 -2.03593 -7.92323
upperback 3.67897 -3.5892 -2.02271
thorax -0.899656 -1.92368 2.67493
lowerneck 3.66085 -12.6976 -16.8116
upperneck 13.4724 -18.9663 10.7909
head 6.1271 -9.77035 4.84876
rclavicle -9.14409e-015 2.62396e-014
rhumerus -39.0859 -12.7105 -67.6262
rradius 47.3102
rwrist -9.62103
rhand -19.9854 -23.7621
rfingers 7.12502
rthumb 6.3539 -53.6468
lclavicle -9.14409e-015 2.62396e-014
lhumerus -24.9219 10.3196 66.422
lradius 42.2347
lwrist 8.14615
lhand -23.1351 -4.85493
lfingers 7.12502
lthumb 3.31262 25.0991
rfemur -34.7731 -8.83059 25.5487
rtibia 29.6729
rfoot -13.6642 -21.2114
rtoes 33.2411
lfemur 8.32601 9.97324 -20.8398
ltibia 19.724
lfoot -15.8417 -6.59903
ltoes -2.36147
174
root -10.7178 17.3098 14.9382 210.035 -77.6947 -206.936
lowerback 9.47468 -2.12962 -7.92625
upperback 3.73192 -3.74409 -1.80457
thorax -1.02837 -1.99865 2.9347
lowerneck 3.84499 -12.6691 -16.4337
upperneck 13.3289 -18.9042 10.5213
head 5.97914 -9.74243 4.74026
rclavicle -1.0635e-014 -4.37326e-014
rhumerus -39.7234 -13.7637 -66.4573
rradius 48.6224
rwrist -8.19681
rhand -18.9334 -24.5784
rfingers 7.12502
rthumb 7.36947 -54.4301
lclavicle -1.0635e-014 -4.37326e-014
lhumerus -25.2255 10.1164 66.4642
lradius 42.2188
lwrist 7.99906
lhand -23.4497 -5.01109
lfingers 7.12502
lthumb 3.00881 24.9474
rfemur -33.6857 -8.10551 25.6483
rtibia 30.3779
rfoot -13.1389 -22.6562
rtoes 33.1081
lfemur 9.41435 9.8088 -19.765
ltibia 20.0425
lfoot -15.1353 -7.32265
ltoes -3.39953
175
root -10.8648 17.3218 14.9357 205.16 -77.7389 -201.043
lowerback 8.76819 -2.08956 -5.5004
upperback 3.2054 -3.41103 -1.82618
thorax -1.3761 -1.77813 1.52273
lowerneck 4.02495 -12.9092 -16.2159
upperneck 13.5089 -19.2954 10.5068
head 6.0381 -9.93487 4.67057
rclavicle 2.28602e-014 3.61788e-014
rhumerus -40.4366 -14.1798 -65.9856
rradius 50.0739
rwrist -11.075
rhand -21.1905 -24.9133
rfingers 7.12502
rthumb 5.19041 -54.8297
lclavicle 2.28602e-014 3.61788e-014
lhumerus -25.4626 9.12803 66.533
lradius 42.2574
lwrist 7.84206
lhand -23.6197 -5.11211
lfingers 7.12502
lthumb 2.84468 24.8487
rfemur -34.5345 -8.12484 27.1891
rtibia 30.8502
rfoot -10.8746 -22.693
rtoes 31.0498
lfemur 8.42186 9.21365 -18.9623
ltibia 20.764
lfoot -14.4947 -6.45144
ltoes -4.77072
176
root -11.0084 17.3207 14.9017 206.68 -77.6644 -202.848
lowerback 8.81698 -2.23229 -6.02792
upperback 3.37019 -3.63962 -1.60111
thorax -1.16718 -1.90678 2.06372
lowerneck 3.60887 -13.0482 -14.7843
upperneck 13.0504 -19.118 8.9791
head 5.65016 -9.81938 4.02018
rclavicle 3.18055e-015 8.74653e-015
rhumerus -39.6629 -14.2897 -64.9623
rradius 50.7973
rwrist -10.7812
rhand -20.8019 -25.5087
rfingers 7.12502
rthumb 5.56565 -55.4156
lclavicle 3.18055e-015 8.74653e-015
lhumerus -25.5841 9.53808 66.9685
lradius 42.2464
lwrist 7.54537
lhand -23.6214 -5.25571
lfingers 7.12502
lthumb 2.84297 24.7051
rfemur -34.1367 -8.29773 26.7243
rtibia 31.2208
rfoot -10.0139 -22.8005
rtoes 30.4383
lfemur 8.37045 8.48592 -19.3641
ltibia 21.9011
lfoot -13.8169 -6.10801
ltoes -6.36463
177
root -11.1742 17.316 14.7843 205.479 -77.695 -202.241
lowerback 9.18624 -2.05828 -6.11876
upperback 3.35372 -3.45018 -1.62407
thorax -1.39858 -1.80726 2.09343
lowerneck 4.10118 -13.1725 -16.0262
upperneck 13.4636 -19.6382 10.2875
head 6.0186 -10.1033 4.54437
rclavicle -1.63997e-014 -3.97569e-015
rhumerus -40.2299 -15.4661 -63.9781
rradius 51.5451
rwrist -9.75532
rhand -21.1703 -25.4321
rfingers 7.12502
rthumb 5.20987 -55.348
lclavicle -1.63997e-014 -3.97569e-015
lhumerus -25.9222 8.56338 67.0072
lradius 42.1718
lwrist 7.15668
lhand -23.7396 -5.51401
lfingers 7.12502
lthumb 2.72881 24.4483
rfemur -32.8851 -7.86892 26.8419
rtibia 31.5212
rfoot -10.6807 -22.9601
rtoes 30.3471
lfemur 8.82258 8.46204 -18.5284
ltibia 23.4294
lfoot -12.995 -6.93947
ltoes -6.44394
